Coordinates
version=1
nRows=14
nColumns=40
inDegrees=yes

Units are S.I. units (second, meters, Newtons, ...)
Angles are in degrees.

endheader
time	pelvis_tilt	pelvis_list	pelvis_rotation	pelvis_tx	pelvis_ty	pelvis_tz	hip_flexion_r	hip_adduction_r	hip_rotation_r	knee_angle_r	knee_angle_r_beta	ankle_angle_r	subtalar_angle_r	mtp_angle_r	hip_flexion_l	hip_adduction_l	hip_rotation_l	knee_angle_l	knee_angle_l_beta	ankle_angle_l	subtalar_angle_l	mtp_angle_l	lumbar_extension	lumbar_bending	lumbar_rotation	arm_flex_r	arm_add_r	arm_rot_r	elbow_flex_r	pro_sup_r	wrist_flex_r	wrist_dev_r	arm_flex_l	arm_add_l	arm_rot_l	elbow_flex_l	pro_sup_l	wrist_flex_l	wrist_dev_l
     46.66000000	     -4.89749356	     -4.81261254	     -1.80868749	      0.89024497	      0.91893643	      0.45274930	     22.68248632	     -6.63431565	     -5.67648969	     66.09365338	     66.09365338	     -0.85091101	    -18.57016305	      6.98451768	     22.57765874	     -3.45625966	     -1.09756061	     30.98138841	     30.98138841	     15.72677218	    -15.88473929	      6.26354222	    -10.24043015	      5.23456109	      2.77815796	     16.05111829	    -12.06331263	     -9.09565164	     27.08573281	     46.20396074	      0.00000000	      0.00000000	     19.50980230	    -15.95866183	      6.94713562	     45.54488238	     46.40411870	      0.00000000	      0.00000000
     46.67857143	     -4.66906050	     -5.09172087	     -2.24378972	      0.89060742	      0.91812330	      0.45110865	     24.22438610	     -6.05056266	     -5.13149759	     66.72465517	     66.72465517	     -0.08116684	    -18.53245020	      6.68499599	     22.21035358	     -3.65359282	     -1.09543449	     31.71866113	     31.71866113	     16.38201961	    -16.40351667	      6.17377239	    -10.54614264	      5.71405871	      2.47495270	     13.22664926	    -12.18474121	     -9.20589755	     25.74503702	     46.25170299	      0.00000000	      0.00000000	     20.51130939	    -16.28126079	      6.68344213	     46.39724430	     46.44989547	      0.00000000	      0.00000000
     46.69714286	     -4.43056400	     -5.35047474	     -2.71097415	      0.89095811	      0.91730030	      0.44950997	     25.71163195	     -5.46560234	     -4.64057654	     67.06053699	     67.06053699	      0.71732861	    -18.48951627	      6.49743288	     21.80484784	     -3.83819163	     -1.16224664	     32.44006523	     32.44006523	     17.08704070	    -16.86199683	      6.21226819	    -10.90027267	      6.17836449	      2.23347281	     10.36304198	    -12.37411602	     -9.39789952	     24.38245599	     46.30795359	      0.00000000	      0.00000000	     21.54760404	    -16.60093038	      6.41964403	     47.32243234	     46.49725711	      0.00000000	      0.00000000
     46.71571429	     -4.20839923	     -5.62070860	     -3.22431207	      0.89127305	      0.91648058	      0.44811752	     27.12272440	     -4.83450898	     -4.22105735	     66.99201603	     66.99201603	      1.53814545	    -18.43993160	      6.41375013	     21.38716031	     -4.06581853	     -1.30823685	     33.12932240	     33.12932240	     17.87684946	    -17.21159052	      6.45004033	    -11.26455382	      6.58953411	      2.13636487	      7.46090508	    -12.64607195	     -9.72260152	     22.99783887	     46.38023595	      0.00000000	      0.00000000	     22.59633229	    -16.84565277	      6.16304705	     48.36018264	     46.54598626	      0.00000000	      0.00000000
     46.73428571	     -4.00169717	     -5.80737693	     -3.77318261	      0.89158856	      0.91580120	      0.44681836	     28.38698540	     -4.29921087	     -3.89181318	     66.38146278	     66.38146278	      2.39582078	    -18.38609607	      6.30412512	     20.90185305	     -4.21216799	     -1.53536186	     33.68255939	     33.68255939	     18.66587217	    -17.47329550	      6.76231595	    -11.58681243	      7.04032355	      1.91266019	      4.86100998	    -12.85110144	    -10.12792708	     21.87552232	     46.45333066	      0.00000000	      0.00000000	     23.50567847	    -17.20379992	      5.90477739	     49.21269943	     46.59117296	      0.00000000	      0.00000000
     46.75285714	     -3.85438394	     -5.91029593	     -4.35528991	      0.89185772	      0.91525849	      0.44584010	     29.52920877	     -3.84243545	     -3.66447931	     65.18944868	     65.18944868	      3.26296392	    -18.28977573	      6.10796962	     20.35584897	     -4.29462729	     -1.83419108	     33.97809112	     33.97809112	     19.22477564	    -17.78015488	      6.75382574	    -11.82547250	      7.30749915	      1.22218779	      2.62310230	    -12.99513794	    -10.30441275	     21.03024292	     46.48863181	      0.00000000	      0.00000000	     24.15342959	    -17.96948471	      5.61492780	     49.53729462	     46.62756083	      0.00000000	      0.00000000
     46.77142857	     -3.80040985	     -6.14533296	     -5.01477884	      0.89197296	      0.91481688	      0.44526725	     30.51515765	     -3.19033340	     -3.57286123	     63.31203944	     63.31203944	      4.04389539	    -18.21838590	      5.76604716	     19.94119580	     -4.59638136	     -2.25085045	     34.36315424	     34.36315424	     20.01485295	    -17.81568822	      7.22123257	    -12.06766207	      7.67404003	      1.55599724	      0.07419763	    -13.34421954	    -10.83580127	     20.15139883	     46.56923541	      0.00000000	      0.00000000	     25.03825323	    -17.79159263	      5.27962228	     50.82933290	     46.68420902	      0.00000000	      0.00000000
     46.79000000	     -3.86285451	     -6.16345462	     -5.70821802	      0.89198966	      0.91455477	      0.44501510	     31.44271566	     -2.74074425	     -3.50357548	     60.87926050	     60.87926050	      4.84535843	    -17.94260914	      5.57033416	     19.47342382	     -4.67206794	     -2.73277153	     34.34952480	     34.34952480	     20.47438958	    -17.99115820	      7.34747595	    -12.06125528	      7.78339768	      1.01544775	     -1.80572614	    -13.51906051	    -11.08044090	     19.59720716	     46.60378749	      0.00000000	      0.00000000	     25.51906106	    -18.36161407	      4.99665698	     51.18944308	     46.71841494	      0.00000000	      0.00000000
     46.80857143	     -3.92268299	     -6.19842950	     -6.44555652	      0.89197004	      0.91473458	      0.44498298	     31.88301798	     -2.32145621	     -3.67197561	     57.40958691	     57.40958691	      4.15417721	    -18.00911337	      1.07924116	     18.98486853	     -4.77776577	     -3.24522502	     34.37058722	     34.37058722	     21.58112844	    -17.84060572	      9.24010819	    -12.21344594	      7.94938411	      1.49410146	     -4.23555342	    -13.31223442	    -16.97468885	     20.32155780	     47.25336049	      0.00000000	      0.00000000	     26.23036337	    -17.85160991	      3.92017739	     52.51501617	     46.85459720	      0.00000000	      0.00000000
     46.82714286	     -4.06561462	     -6.26394001	     -7.20201837	      0.89183822	      0.91511282	      0.44550047	     32.24870860	     -1.73209227	     -3.82017389	     53.62994328	     53.62994328	      4.31168653	    -17.49968533	     -0.39202574	     18.41437821	     -4.99041733	     -3.88929753	     34.00412826	     34.00412826	     21.76414160	    -17.89631782	      9.04127901	    -12.22536854	      8.07439860	      1.21648010	     -5.99475812	    -13.35626973	    -18.34763381	     20.88144687	     47.36248402	      0.00000000	      0.00000000	     26.27869898	    -18.12135800	      3.19174740	     53.75795361	     46.93282720	      0.00000000	      0.00000000
     46.84571429	     -4.26267242	     -6.28442882	     -7.96844612	      0.89166322	      0.91584067	      0.44631320	     32.41454347	     -1.12823274	     -3.98574708	     49.41855278	     49.41855278	      4.56789464	    -16.42663887	     -0.84744111	     17.78535840	     -5.16645185	     -4.56298941	     33.41666516	     33.41666516	     21.93245451	    -17.84502821	      9.02623631	    -12.14534361	      8.13218453	      1.17237749	     -7.41101469	    -13.44458028	    -18.69916457	     20.75520200	     47.38952487	      0.00000000	      0.00000000	     26.61361415	    -18.13752717	      2.82499403	     54.40919378	     46.97324053	      0.00000000	      0.00000000
     46.86428571	     -4.68092139	     -6.24388682	     -8.73066714	      0.89131793	      0.91653530	      0.44751389	     32.63302953	     -0.50295127	     -4.14464287	     44.96978837	     44.96978837	      4.66375182	    -14.88897721	     -0.73836986	     17.33150177	     -5.30978986	     -5.24950389	     32.66228413	     32.66228413	     22.01474941	    -17.80538434	      9.12781541	    -11.77003543	      8.11786993	      0.92469160	     -8.46957566	    -13.44984363	    -18.85264241	     20.62772473	     47.39868684	      0.00000000	      0.00000000	     26.84952232	    -18.32401568	      2.60948334	     54.78544011	     46.99844423	      0.00000000	      0.00000000
     46.88285714	     -4.79097994	     -6.22842525	     -9.40998016	      0.89128841	      0.91783302	      0.44876163	     32.09398109	     -0.07498939	     -4.72988284	     39.99891471	     39.99891471	      3.68308184	    -12.60058368	     -3.45501261	     16.40504532	     -5.43795895	     -6.01641212	     31.67313860	     31.67313860	     21.74087240	    -17.69377474	      8.30111513	    -11.85724695	      8.12789891	      0.90036270	    -10.24961672	    -13.29080538	    -20.16080092	     23.02290994	     47.37715396	      0.00000000	      0.00000000	     26.60531754	    -17.92553444	      0.82703964	     56.90269569	     47.16931748	      0.00000000	      0.00000000
     46.90142857	     -5.03045636	     -6.15637729	    -10.05795930	      0.89116685	      0.91912525	      0.45032764	     31.67790533	      0.42184258	     -5.13093018	     35.29812958	     35.29812958	      3.17518280	     -9.80769242	     -3.16688973	     15.57871569	     -5.50111583	     -6.71236107	     30.58369295	     30.58369295	     21.69136717	    -17.47344776	      8.26208173	    -11.69136690	      8.05280969	      0.82166161	    -11.01763463	    -13.19669488	    -20.38205342	     23.20310122	     47.37357791	      0.00000000	      0.00000000	     26.84469976	    -17.84614270	      0.56351710	     57.46525230	     47.19954194	      0.00000000	      0.00000000
